<svg width="100" height="30" viewBox="0 0 100 30" fill="none" xmlns="http://www.w3.org/2000/svg">
<path fill-rule="evenodd" clip-rule="evenodd" d="M4.74147 24.2883H23.7663V5.07129H4.74147V24.2883Z" fill="white"/>
<path fill-rule="evenodd" clip-rule="evenodd" d="M23.1449 23.6851L16.2413 17.8372C16.2413 17.8372 15.306 16.9149 14.2571 16.9149C13.1975 16.9149 12.2623 17.8372 12.2623 17.8372L5.36075 23.6851L5.33863 23.6649L11.1291 16.6915C11.1291 16.6915 12.0401 15.75 12.0401 14.6777C12.0401 13.616 11.1291 12.6734 11.1291 12.6734L5.33863 5.69467L5.36075 5.67021L12.2623 11.5245C12.2623 11.5245 13.1975 12.4489 14.2571 12.4489C15.306 12.4489 16.2413 11.5245 16.2413 11.5245L23.1449 5.67021L23.1734 5.70106L17.3713 12.6734C17.3713 12.6734 16.4667 13.616 16.4667 14.6777C16.4667 15.75 17.3713 16.6915 17.3713 16.6915L23.1734 23.6628L23.1449 23.6851ZM26.3751 14.6777V14.6755C26.3751 12.7851 26.4509 11.0904 27.839 8.11382C28.2403 7.24787 29.1281 5.98616 27.8201 4.51382C26.7574 3.44361 25.5504 3.61914 24.7374 4.09255C25.205 3.27127 25.3788 2.0468 24.3171 0.972335C22.8606 -0.344687 21.6073 0.549994 20.7542 0.957441C17.8042 2.36276 16.1349 2.44042 14.2571 2.44042C12.3718 2.44042 10.7004 2.36276 7.75676 0.957441C6.89946 0.549994 5.6409 -0.344687 4.18855 0.972335C3.12693 2.0468 3.30597 3.27127 3.77359 4.09255C2.95842 3.61702 1.74935 3.44361 0.685631 4.51382C-0.621379 5.98616 0.270674 7.24787 0.664568 8.11382C2.0611 11.0904 2.13798 12.7851 2.13798 14.6777C2.13798 16.5755 2.0611 18.2745 0.664568 21.2489C0.270674 22.1085 -0.621379 23.3787 0.685631 24.85C1.74935 25.917 2.95842 25.7404 3.77359 25.2723C3.30597 26.0957 3.12693 27.317 4.18855 28.3808C5.6409 29.7074 6.89946 28.8106 7.75676 28.4032C10.7025 26.9989 12.3718 26.9245 14.2571 26.9245C16.1349 26.9245 17.8042 26.9989 20.7531 28.4032C21.6073 28.8106 22.8606 29.7074 24.3171 28.3808C25.3788 27.317 25.2008 26.0957 24.7353 25.2723C25.5504 25.7404 26.7574 25.9234 27.8201 24.85C29.1281 23.3787 28.2403 22.1085 27.839 21.2489C26.4509 18.2702 26.3751 16.5755 26.3751 14.6777Z" fill="#FF3333"/>
<path fill-rule="evenodd" clip-rule="evenodd" d="M48.8986 25.8362C51.2652 24.9798 54.1941 20.9011 53.7086 14.4777C53.2409 8.26384 50.8955 3.38192 44.6501 2.92341C44.6501 2.92341 43.4673 2.83724 42.4763 2.83299C41.4136 2.82554 41.1861 2.78937 41.1071 3.93618C40.9713 6.08192 40.9323 22.7936 41.0682 25.2053C41.084 25.5362 41.1198 26.3298 42.4826 26.4692C44.9744 26.7128 47.0355 26.517 48.8986 25.8362ZM46.4826 1.8649C51.7675 1.84043 58.7218 5.50001 58.6944 14.6426C58.6765 22.5947 52.9913 27.4926 47.7412 27.4926L34.4088 27.4958L34.4257 27.2117C35.1756 27.0766 36.0181 26.6043 36.1582 26.1C36.5995 24.184 36.4994 6.65426 36.2319 3.76703C36.1476 2.86384 35.442 2.28192 34.5858 2.13937L34.5594 1.8649C34.5594 1.8649 45.2988 1.87129 46.4826 1.8649ZM75.7139 21.2106C75.8193 15.7032 71.8224 14.2426 67.6834 14.0138C67.597 14.0075 67.6296 13.8011 67.6939 13.7904C69.0388 13.7362 74.3859 13.1106 74.1689 7.95107C73.952 2.92341 70.1763 2.81065 68.7955 2.78937C67.6686 2.77448 67.4232 2.77448 66.9472 2.79788C66.1457 2.83299 65.9456 2.89256 65.9498 3.77128C65.9498 3.88299 65.7739 12.8287 65.6686 19.1181C65.6191 22.5362 65.6054 25.1681 65.6054 25.1681C65.6254 25.7947 65.5485 26.4298 67.0757 26.5021C68.6523 26.5798 70.685 26.6458 72.1078 26.3404C73.4106 26.0596 75.6255 25.0957 75.7139 21.2106ZM74.0783 13.8064C80.2953 15.3628 80.6703 19.8958 80.5839 21.1702C80.2995 26.8457 75.5349 27.4958 73.616 27.4958H58.9492L58.9661 27.2096C60.0319 27.0617 60.8313 26.4723 60.8313 24.5809L60.9177 5.03511C60.9419 2.91597 60.39 2.26809 59.2283 2.1298L59.202 1.8649H70.2921C72.3279 1.8649 78.4586 1.45639 78.9809 7.14894C79.3959 11.7043 74.4406 13.6075 74.0783 13.8064ZM97.9932 1.94256L98.2449 1.94043L98.3312 6.50746L98.0542 6.50533C97.6087 4.64575 95.8394 2.89256 92.2912 2.70958C88.1005 2.48724 86.289 5.00958 86.2617 7.39682C86.2374 10.5692 88.6882 11.2245 92.3186 12.1192C94.0289 12.5415 100.367 13.3766 99.8594 20.5702C99.5077 25.5947 95.2127 27.984 89.1316 27.7947C89.1316 27.7947 86.605 27.7096 83.0758 26.7213C82.4228 26.534 82.249 26.7564 81.9868 27.2426L81.6982 27.2575L81.7077 22.333L81.9868 22.3468C82.1258 22.8458 82.1647 23.7745 83.06 24.5617C83.7119 25.1426 85.2443 26.5766 88.605 26.6138C91.9036 26.6585 94.6377 25.2521 95.0042 21.5138C95.1043 20.5085 94.9989 18.2075 92.7746 17.1585C91.0347 16.3372 86.2037 15.7958 83.8625 13.7223C83.8625 13.7223 81.0852 11.7681 81.5233 8.12022C82.1384 2.9649 86.3986 1.67554 90.2259 1.59682C90.2259 1.59682 93.6498 1.56277 96.3776 2.27448C96.3776 2.27448 97.0453 2.45746 97.5982 2.24469C97.8225 2.16916 97.9279 2.02767 97.9932 1.94256Z" fill="black"/>
</svg>
