<svg width="81" height="80" viewBox="0 0 81 80" fill="none" xmlns="http://www.w3.org/2000/svg">
<g clip-path="url(#clip0_344_124)">
<path d="M80.6426 34.3511H51.5511V24.5381H80.6426V34.3511Z" fill="#E669A2"/>
<path d="M76.864 34.351H51.5511V9.8078H76.864V34.351Z" fill="#F3BE26"/>
<path d="M66.4061 34.3511H51.5511V0H66.4061V34.3511Z" fill="#EE9C34"/>
<path d="M69.3285 34.351H51.5511V3.83295H69.3285V34.351Z" fill="#F3BC87"/>
<path d="M51.5471 3.83875V34.3479H66.4045V3.83875H51.5471Z" fill="#E3721C"/>
<path d="M36.6552 34.3511H51.5512V39.2581H36.6552V34.3511Z" fill="#AD1B02"/>
<path d="M51.5471 9.80243V34.3479H69.3371V9.80243H51.5471Z" fill="#E88D14"/>
<path d="M51.5471 9.80243V34.3479H66.4045V9.80243H51.5471Z" fill="#D85604"/>
<path d="M60.8407 34.3511H51.5511V19.6199H60.8407V34.3511Z" fill="#C14303"/>
<path d="M51.5471 24.545V34.3479H76.8726V24.545H51.5471Z" fill="#DB4E18"/>
<path d="M51.5471 24.545V34.3479H69.3371V24.545H51.5471Z" fill="#D1390D"/>
<path d="M51.5471 24.545V34.3479H66.4045V24.545H51.5471Z" fill="#C22303"/>
<path d="M51.5471 24.545V34.3479H60.8499V24.545H51.5471Z" fill="#AD1B02"/>
<path d="M54.79 52.833C52.2556 53.4268 50.9038 55.9505 50.9038 60.3299C50.9038 64.7836 52.7061 67.7527 55.3533 67.7527C56.6488 67.7527 57.7752 67.1588 60.1408 65.6V69.2373C57.2683 71.0186 55.5786 71.464 53.3257 71.464C50.7911 71.464 48.9886 70.6475 47.5806 68.6434C46.1162 66.7134 45.3277 64.1897 45.3277 61.2947C45.3277 54.9855 48.9323 50.6062 54.1704 50.6062C57.6062 50.6062 60.0281 52.7588 60.0281 55.8021C60.0281 57.8062 58.9016 59.2166 57.2682 59.2166C56.4234 59.2166 55.7474 58.8455 54.79 58.1773M42.1173 61.2948C44.4265 57.5093 45.2714 55.9505 45.2714 54.0948C45.2714 52.2391 44.1449 50.606 42.5679 50.606C41.6667 50.606 40.8219 51.2741 40.4276 51.8679V59.6617L36.6539 66.3422V51.2H33.0492L27.0788 64.1898V51.2H25.0511L19.5877 52.8331V54.6887L22.5728 55.0597V71.1672H26.3465L32.0915 58.697V71.1672H36.3158M8.15413 68.6434H8.99895C12.0403 68.6434 13.7301 66.1939 13.7301 61.2947C13.7301 57.2124 12.3784 54.9855 9.8437 54.9855C9.50578 54.9855 8.99887 55.0597 8.15405 55.2825V68.6433L8.15413 68.6434ZM8.15413 77.4022L10.6323 78.1444V80H0.888388V78.1444L3.14125 77.4022V54.9854H0.663086V53.1298L6.57701 50.7546H8.15421V53.4268C10.914 51.2 11.8715 50.8289 13.3358 50.8289C16.6027 50.8289 19.0809 54.8371 19.0809 60.4043C19.0809 66.7878 15.7578 71.1672 10.6886 71.1672C10.1254 71.1672 9.16787 71.093 8.15413 71.0188" fill="black"/>
</g>
<defs>
<clipPath id="clip0_344_124">
<rect width="80" height="80" fill="white" transform="translate(0.652832)"/>
</clipPath>
</defs>
</svg>
