<svg width="121" height="36" viewBox="0 0 121 36" fill="none" xmlns="http://www.w3.org/2000/svg">
<g clip-path="url(#clip0_344_148)">
<path d="M3.01189 31.5203C3.33768 31.6888 3.83782 31.8582 4.35337 31.8582C4.90887 31.8582 5.20291 31.6253 5.20291 31.2709C5.20291 30.9322 4.94881 30.7398 4.30614 30.506C3.41672 30.1904 2.83761 29.6932 2.83761 28.9036C2.83761 27.9767 3.59999 27.2689 4.86164 27.2689C5.46515 27.2689 5.90993 27.3977 6.22673 27.5439L5.95715 28.5334C5.74293 28.4285 5.36178 28.2749 4.83803 28.2749C4.31349 28.2749 4.06018 28.5177 4.06018 28.7977C4.06018 29.1446 4.36157 29.2975 5.05225 29.5634C5.99703 29.9178 6.44181 30.4167 6.44181 31.1808C6.44181 32.091 5.75114 32.8724 4.28175 32.8724C3.67089 32.8724 3.06732 32.7047 2.76599 32.5346L3.01189 31.5203ZM10.5216 31.8258C10.5216 32.205 10.5379 32.5667 10.577 32.7831H9.48959L9.41875 32.3891H9.39429C9.14019 32.7046 8.74348 32.8723 8.28329 32.8723C7.49731 32.8723 7.02898 32.2933 7.02898 31.6648C7.02898 30.643 7.93389 30.1514 9.30711 30.1598V30.1028C9.30711 29.8938 9.19554 29.5965 8.60095 29.5965C8.20268 29.5965 7.78322 29.7328 7.52905 29.8939L7.3067 29.105C7.57628 28.9522 8.10816 28.7581 8.81518 28.7581C10.1086 28.7581 10.5215 29.5321 10.5215 30.4572V31.8258H10.5216ZM9.34713 30.9238C8.71181 30.9164 8.21987 31.0692 8.21987 31.5442C8.21987 31.8581 8.42597 32.0117 8.69633 32.0117C8.99773 32.0117 9.24369 31.8102 9.32352 31.5607C9.33946 31.4919 9.34739 31.4215 9.34713 31.3509V30.9238ZM12.2762 28.8473L12.8 30.6745C12.891 30.9896 12.9653 31.3094 13.0223 31.6326H13.0459C13.1095 31.3106 13.173 31.0131 13.2609 30.6745L13.7602 28.8473H15.0309L13.5859 32.7834H12.3796L10.9665 28.8473H12.2762ZM16.3972 31.2061C16.4355 31.7124 16.9282 31.9553 17.4918 31.9553C17.9048 31.9553 18.2379 31.8975 18.5637 31.7942L18.7225 32.6235C18.325 32.7838 17.8412 32.8721 17.3167 32.8721C15.9988 32.8721 15.2446 32.0916 15.2446 30.8592C15.2446 29.8621 15.8563 28.7578 17.2059 28.7578C18.4602 28.7578 18.9367 29.7482 18.9367 30.722C18.9367 30.9318 18.9123 31.1177 18.8969 31.2061H16.3972ZM17.8176 30.3685C17.8176 30.0711 17.6906 29.5714 17.1343 29.5714C16.6269 29.5714 16.42 30.0389 16.3882 30.3685H17.8176ZM21.2628 30.1026C21.2628 29.612 21.2465 29.1932 21.2302 28.8471H22.2467L22.302 29.3783H22.3265C22.4935 29.1288 22.8348 28.7579 23.5018 28.7579C24.0011 28.7579 24.3986 29.0156 24.5655 29.4262H24.581C24.7244 29.2164 24.8987 29.0652 25.0811 28.9521C25.2953 28.8224 25.5339 28.7579 25.8199 28.7579C26.5651 28.7579 27.1287 29.2899 27.1287 30.4653V32.7831H25.9543V30.643C25.9543 30.0714 25.7718 29.7409 25.3833 29.7409C25.1047 29.7409 24.9068 29.9342 24.827 30.1679C24.7952 30.2563 24.7789 30.3852 24.7789 30.481V32.7831H23.6044V30.5776C23.6044 30.0795 23.4293 29.7408 23.0489 29.7408C22.7394 29.7408 22.557 29.9829 22.4853 30.1828C22.4454 30.2794 22.4372 30.3926 22.4372 30.4892V32.7831H21.2628V30.1026ZM31.9239 30.7712C31.9239 32.2118 30.9156 32.8726 29.8763 32.8726C28.7409 32.8726 27.8669 32.116 27.8669 30.8439C27.8669 29.5718 28.6936 28.7582 29.939 28.7582C31.1298 28.7582 31.9239 29.5884 31.9239 30.7712ZM29.1139 30.8117C29.1139 31.4882 29.3916 31.9954 29.908 31.9954C30.3755 31.9954 30.6777 31.5204 30.6777 30.8117C30.6777 30.2236 30.4554 29.6288 29.908 29.6288C29.3281 29.6288 29.1139 30.231 29.1139 30.8117ZM32.67 30.1026C32.67 29.612 32.6545 29.1932 32.639 28.8471H33.6865L33.7418 29.3857H33.7654C33.9251 29.1362 34.3217 28.7579 34.9644 28.7579C35.7585 28.7579 36.354 29.2898 36.354 30.4487V32.7831H35.1469V30.6024C35.1469 30.0952 34.9717 29.7483 34.536 29.7483C34.2021 29.7483 34.0041 29.9829 33.9252 30.2075C33.8926 30.2877 33.8771 30.4017 33.8771 30.514V32.7831H32.67V30.1026ZM38.2507 31.2061C38.2905 31.7124 38.7825 31.9553 39.347 31.9553C39.7599 31.9553 40.0931 31.8975 40.418 31.7942L40.5776 32.6235C40.1802 32.7838 39.6956 32.8721 39.1718 32.8721C37.8539 32.8721 37.0997 32.0916 37.0997 30.8592C37.0997 29.8621 37.7114 28.7578 39.061 28.7578C40.3153 28.7578 40.791 29.7482 40.791 30.722C40.791 30.9318 40.7682 31.1177 40.7519 31.2061H38.2507ZM39.6719 30.3685C39.6719 30.0711 39.5456 29.5714 38.9893 29.5714C38.4811 29.5714 38.275 30.0389 38.2432 30.3685H39.6719ZM42.3713 28.8473L42.9504 30.7803C43.014 31.0132 43.0938 31.3031 43.141 31.5121H43.1647C43.2209 31.3031 43.2836 31.0058 43.3398 30.7803L43.8162 28.8473H45.1105L44.2048 31.4394C43.6493 33.0014 43.2763 33.6291 42.8405 34.0232C42.4186 34.394 41.9747 34.5229 41.6725 34.5625L41.4184 33.5251C41.5699 33.5004 41.7597 33.4285 41.9422 33.3161C42.1254 33.2187 42.3233 33.0254 42.4431 32.8238C42.4822 32.7677 42.5067 32.7049 42.5067 32.6471C42.5067 32.6074 42.4985 32.543 42.4504 32.4464L41.03 28.8473H42.3713ZM46.2268 32.8723C45.8212 32.8723 45.528 32.5592 45.528 32.1314C45.528 31.6977 45.8212 31.3838 46.2423 31.3838C46.6634 31.3838 46.9493 31.6886 46.9493 32.1314C46.9493 32.5592 46.6634 32.8723 46.2341 32.8723H46.2268ZM49.6429 27.357H50.8572V31.7539H52.9855V32.7831H49.6429V27.357ZM55.0652 27.7523C55.0652 28.0909 54.8111 28.3651 54.4144 28.3651C54.0324 28.3651 53.7791 28.0909 53.7872 27.7523C53.7791 27.3979 54.0324 27.1336 54.4217 27.1336C54.811 27.1336 55.0571 27.3979 55.0652 27.7523ZM53.8182 32.7835V28.8476H55.0253V32.7834H53.8182V32.7835ZM57.0497 28.8473L57.5733 30.6745C57.6678 31.0058 57.7403 31.3187 57.7957 31.6326H57.8193C57.882 31.3106 57.9464 31.0131 58.0343 30.6745L58.5344 28.8473H59.805L58.3601 32.7834H57.1522L55.7399 28.8473H57.0497ZM61.1704 31.2061C61.2103 31.7124 61.7023 31.9553 62.2651 31.9553C62.6789 31.9553 63.012 31.8975 63.337 31.7942L63.4958 32.6235C63.0992 32.7838 62.6145 32.8721 62.0916 32.8721C60.7738 32.8721 60.0187 32.0916 60.0187 30.8592C60.0187 29.8621 60.6305 28.7578 61.9801 28.7578C63.2344 28.7578 63.7109 29.7482 63.7109 30.722C63.7109 30.9318 63.6864 31.1177 63.6694 31.2061H61.1704ZM62.5917 30.3685C62.5917 30.0711 62.4647 29.5714 61.9075 29.5714C61.3992 29.5714 61.194 30.0389 61.1631 30.3685H62.5917ZM66.0363 27.0682H67.2426V29.3142H67.2589C67.4894 28.9755 67.895 28.7583 68.4342 28.7583C69.3627 28.7583 70.0462 29.5397 70.0372 30.7473C70.0372 32.1639 69.1485 32.8718 68.2599 32.8718C67.8078 32.8718 67.3696 32.7049 67.0919 32.2366H67.0756L67.0284 32.7834H66.0046C66.0201 32.5265 66.0363 32.0516 66.0363 31.6088V27.0682ZM67.2426 31.1091C67.2426 31.1892 67.2508 31.2627 67.2662 31.3272C67.3453 31.6559 67.6238 31.9062 67.974 31.9062C68.4896 31.9062 68.8073 31.504 68.8073 30.7953C68.8073 30.1832 68.5368 29.7008 67.974 29.7008C67.6474 29.7008 67.3452 29.9494 67.2662 30.3046C67.2503 30.379 67.2423 30.4549 67.2426 30.531V31.1091ZM71.737 31.2061C71.7769 31.7124 72.2689 31.9553 72.8317 31.9553C73.2447 31.9553 73.5778 31.8975 73.9036 31.7942L74.0625 32.6235C73.6658 32.7838 73.1804 32.8721 72.6566 32.8721C71.3396 32.8721 70.5854 32.0916 70.5854 30.8592C70.5854 29.8621 71.1971 28.7578 72.5467 28.7578C73.801 28.7578 74.2767 29.7482 74.2767 30.722C74.2767 30.9318 74.2531 31.1177 74.2376 31.2061H71.737ZM73.1567 30.3685C73.1567 30.0711 73.0288 29.5714 72.4758 29.5714C71.9675 29.5714 71.7606 30.0389 71.7289 30.3685H73.1567ZM76.5068 27.7762V28.8476H77.3734V29.7479H76.5068V31.1736C76.5068 31.6493 76.6184 31.8658 76.9833 31.8658C77.1503 31.8658 77.2227 31.8584 77.3417 31.8336L77.349 32.7604C77.1901 32.8232 76.9043 32.8719 76.5622 32.8719C76.1737 32.8719 75.8486 32.7282 75.658 32.5267C75.4357 32.2929 75.3241 31.9146 75.3241 31.3595V29.748H74.8086V28.8476H75.3241V28.1067L76.5068 27.7762ZM79.5798 27.7762V28.8476H80.444V29.7479H79.5798V31.1736C79.5798 31.6493 79.6914 31.8658 80.0547 31.8658C80.2217 31.8658 80.2933 31.8584 80.413 31.8336L80.4204 32.7604C80.2615 32.8232 79.9773 32.8719 79.6344 32.8719C79.2467 32.8719 78.9201 32.7282 78.7295 32.5267C78.5079 32.2929 78.3964 31.9146 78.3964 31.3595V29.748H77.88V28.8476H78.3964V28.1067L79.5798 27.7762ZM82.2302 31.2061C82.2701 31.7124 82.7629 31.9553 83.3281 31.9553C83.7395 31.9553 84.0726 31.8975 84.3975 31.7942L84.5556 32.6235C84.1597 32.7838 83.6767 32.8721 83.1522 32.8721C81.8343 32.8721 81.08 32.0916 81.08 30.8592C81.08 29.8621 81.6917 28.7578 83.0414 28.7578C84.294 28.7578 84.7722 29.7482 84.7722 30.722C84.7722 30.9318 84.7477 31.1177 84.7315 31.2061H82.2302ZM83.6523 30.3685C83.6523 30.0711 83.5252 29.5714 82.9697 29.5714C82.4607 29.5714 82.2546 30.0389 82.2221 30.3685H83.6523ZM85.6516 30.1428C85.6516 29.563 85.6369 29.1855 85.6215 28.8476H86.6615L86.7014 29.572H86.7332C86.9311 28.9988 87.4068 28.7576 87.7798 28.7576C87.8906 28.7576 87.9468 28.7576 88.0339 28.7741V29.9338C87.9467 29.9091 87.8433 29.8942 87.7081 29.8942C87.2634 29.8942 86.9629 30.1354 86.8838 30.5137C86.8683 30.5946 86.8602 30.6912 86.8602 30.7879V32.7835H85.6515V30.1428H85.6516ZM89.2758 32.8723C88.871 32.8723 88.5786 32.5592 88.5786 32.1314C88.5786 31.6977 88.871 31.3838 89.2921 31.3838C89.7124 31.3838 89.9982 31.6886 89.9982 32.1314C89.9982 32.5592 89.7123 32.8723 89.2839 32.8723H89.2758Z" fill="#0071CE"/>
<path d="M106.333 10.2643C107.003 10.2643 107.554 9.91166 107.629 9.45488L108.292 1.86624C108.292 1.11624 107.425 0.5 106.335 0.5C105.246 0.5 104.381 1.11624 104.381 1.86624L105.043 9.45488C105.115 9.91166 105.667 10.2643 106.335 10.2643H106.333ZM102.288 12.6352C102.625 12.0471 102.598 11.3863 102.244 11.0931L96.0939 6.7185C95.4553 6.34266 94.4959 6.79446 93.9509 7.7518C93.4052 8.70755 93.5021 9.77559 94.1407 10.1498L100.951 13.3662C101.377 13.5265 101.957 13.2184 102.291 12.6311L102.288 12.6352ZM110.38 12.631C110.716 13.2183 111.293 13.5264 111.719 13.3661L118.53 10.1497C119.171 9.77551 119.263 8.70741 118.721 7.75173C118.175 6.79439 117.214 6.34252 116.576 6.71842L110.426 11.093C110.074 11.3863 110.048 12.0471 110.382 12.6352L110.38 12.631ZM106.333 19.7429C107.003 19.7429 107.554 20.094 107.629 20.5508L108.292 28.1386C108.292 28.8903 107.425 29.5048 106.335 29.5048C105.246 29.5048 104.381 28.8902 104.381 28.1386L105.043 20.5508C105.115 20.094 105.667 19.7429 106.335 19.7429H106.333ZM110.38 17.3731C110.716 16.7842 111.293 16.4785 111.719 16.6412L118.53 19.8536C119.171 20.2295 119.263 21.2983 118.721 22.2548C118.175 23.2088 117.214 23.6624 116.576 23.2881L110.426 18.9169C110.074 18.6196 110.048 17.9588 110.382 17.3715L110.38 17.3731ZM102.288 17.3718C102.625 17.9592 102.598 18.62 102.244 18.9165L96.0939 23.2878C95.4553 23.6619 94.4959 23.2085 93.9509 22.2544C93.4052 21.2979 93.5021 20.2298 94.1407 19.8532L100.951 16.6408C101.377 16.4781 101.957 16.7845 102.291 17.3735L102.288 17.3718Z" fill="#FDBB30"/>
<path d="M70.905 15.8753C70.905 13.0098 69.6988 10.4888 65.6198 10.4888C63.5257 10.4888 61.8633 11.0852 60.9568 11.6164L61.6206 13.9193C62.449 13.389 63.7709 12.9504 65.0211 12.9504C67.09 12.9446 67.4288 14.1373 67.4288 14.9022V15.084C62.9181 15.0765 60.0682 16.66 60.0682 19.8873C60.0682 21.8573 61.5196 23.7035 64.0438 23.7035C65.5954 23.7035 66.8937 23.0757 67.6707 22.0695H67.7472C67.7472 22.0695 68.2629 24.2552 71.1022 23.4193C70.9532 22.509 70.9051 21.5393 70.9051 20.3721L70.905 15.8753ZM67.5379 18.9018C67.5379 19.1347 67.5175 19.3759 67.4541 19.5866C67.1934 20.4622 66.2983 21.2031 65.18 21.2031C64.2466 21.2031 63.5062 20.6662 63.5062 19.5305C63.5062 17.7933 65.3917 17.3126 67.5379 17.3241V18.9018ZM0.638733 6.58675C0.638733 6.58675 3.58557 18.8333 4.05553 20.8207C4.60447 23.1409 5.59412 23.995 8.44565 23.4193L10.2856 15.8257C10.7515 13.9399 11.0651 12.5952 11.3649 10.6771H11.4178C11.628 12.6142 11.9285 13.9457 12.3122 15.8323C12.3122 15.8323 13.0607 19.2793 13.4443 21.0899C13.8296 22.8997 14.8998 24.0396 17.6928 23.4193L22.0773 6.58668H18.5375L17.0404 13.8639C16.6381 15.9819 16.2732 17.6372 15.9913 19.575H15.9416C15.685 17.6561 15.3601 16.0669 14.9504 14.0035L13.3914 6.58668H9.70338L8.03689 13.8169C7.5645 16.0132 7.12221 17.7875 6.84122 19.6592H6.79071C6.50323 17.8965 6.11958 15.6671 5.70497 13.5401C5.70497 13.5401 4.71454 8.36919 4.36677 6.58661H0.638733L0.638733 6.58675ZM32.1378 15.8753C32.1378 13.0098 30.9307 10.4888 26.8533 10.4888C24.7584 10.4888 23.096 11.0852 22.1895 11.6164L22.8525 13.9193C23.6825 13.389 25.0028 12.9504 26.253 12.9504C28.3235 12.9446 28.6623 14.1373 28.6623 14.9022V15.084C24.1508 15.0765 21.3009 16.66 21.3009 19.8873C21.3009 21.8573 22.7523 23.7035 25.274 23.7035C26.8273 23.7035 28.1256 23.0757 28.9043 22.0695H28.98C28.98 22.0695 29.4956 24.2552 32.335 23.4193C32.1859 22.509 32.1379 21.5393 32.1379 20.3721V15.8753H32.1378ZM28.7706 18.9018C28.7706 19.1347 28.7511 19.3759 28.6867 19.5866C28.426 20.4622 27.5309 21.2031 26.4126 21.2031C25.4801 21.2031 24.7389 20.6662 24.7389 19.5305C24.7389 17.7933 26.6244 17.3126 28.7707 17.3241L28.7706 18.9018ZM37.7558 19.8452V6.58683H34.3854V23.4194H37.7558V19.8452ZM81.8531 6.58675V19.0043C81.8531 20.7158 82.1708 21.9152 82.8509 22.6479C83.4446 23.2889 84.4221 23.7035 85.5949 23.7035C86.591 23.7035 87.5717 23.5119 88.0335 23.3376L87.9904 20.6671C87.6467 20.7521 87.2508 20.8207 86.71 20.8207C85.5616 20.8207 85.1772 20.0748 85.1772 18.5385V13.788H88.1118V10.5674H85.1772V6.58675H81.8531ZM73.1525 10.774V23.4195H76.6296V16.9444C76.6296 16.595 76.65 16.2902 76.7045 16.011C76.9619 14.6548 77.985 13.7873 79.4535 13.7873C79.8558 13.7873 80.1442 13.832 80.457 13.8782V10.5667C80.1947 10.5139 80.0163 10.489 79.6905 10.489C78.3931 10.489 76.9172 11.3382 76.2973 13.1595H76.2029V10.774H73.1525ZM40.1164 10.774V23.4195H43.5047V16.0036C43.5047 15.6558 43.5438 15.2882 43.6636 14.9685C43.9446 14.2218 44.6288 13.3487 45.7226 13.3487C47.0901 13.3487 47.7295 14.5208 47.7295 16.2126V23.4195H51.1146V15.9136C51.1146 15.5815 51.1594 15.1825 51.2555 14.8884C51.534 14.0392 52.272 13.3487 53.2885 13.3487C54.6748 13.3487 55.3394 14.5002 55.3394 16.4909V23.4195H58.7269V15.9714C58.7269 12.0437 56.7607 10.489 54.5404 10.489C53.5573 10.489 52.7819 10.7385 52.0798 11.1755C51.4901 11.5422 50.9623 12.0642 50.5005 12.7506H50.4508C49.9149 11.3877 48.6556 10.489 47.0145 10.489C44.9058 10.489 43.9576 11.5728 43.3826 12.4921H43.3329V10.774H40.1164Z" fill="#0071CE"/>
<path d="M119.972 22.6504C120.304 22.6504 120.561 22.9123 120.561 23.2377C120.561 23.5714 120.304 23.8291 119.968 23.8291C119.636 23.8291 119.371 23.5714 119.371 23.2377C119.371 22.9123 119.636 22.6504 119.968 22.6504H119.972ZM119.964 22.7685C119.71 22.7685 119.519 22.98 119.519 23.2377C119.519 23.4996 119.71 23.7077 119.972 23.7077C120.226 23.711 120.413 23.4996 120.413 23.2377C120.413 22.98 120.226 22.7685 119.968 22.7685H119.964ZM119.876 23.5425H119.742V22.9584C119.815 22.9438 119.89 22.9366 119.964 22.9369C120.074 22.9369 120.123 22.9552 120.165 22.9833C120.197 23.0089 120.222 23.0551 120.222 23.1088C120.222 23.1766 120.173 23.2269 120.102 23.2484V23.2558C120.159 23.274 120.191 23.3202 120.208 23.3987C120.226 23.4888 120.236 23.5242 120.251 23.5425H120.106C120.088 23.521 120.077 23.4706 120.059 23.4029C120.049 23.3384 120.014 23.3095 119.94 23.3095H119.876V23.5425ZM119.879 23.2129H119.943C120.017 23.2129 120.077 23.1881 120.077 23.127C120.077 23.0733 120.038 23.0369 119.954 23.0369C119.919 23.0369 119.893 23.0411 119.879 23.0443L119.879 23.2129Z" fill="#FDBB30"/>
</g>
<defs>
<clipPath id="clip0_344_148">
<rect width="120" height="35" fill="white" transform="translate(0.599976 0.5)"/>
</clipPath>
</defs>
</svg>
